<svg xmlns="http://www.w3.org/2000/svg" width="511.208" height="110.626" viewBox="0 0 511.208 110.626">
  <g id="_15years" data-name="15years" transform="translate(-721.269 -10474.101)">
    <path id="Path_397" data-name="Path 397" d="M-18.7-33.284V0H-20.4V-31.623H-36.33l-.646,15.581q-.492,8.9-2.384,12.44A6.489,6.489,0,0,1-45.4,0h-1.169V-1.661h1.384a5.059,5.059,0,0,0,4.6-3.288q1.461-3.165,1.923-10.572l.738-17.763ZM3.845.615a13.391,13.391,0,0,1-7.4-2.169A14.88,14.88,0,0,1-8.829-7.506a18.39,18.39,0,0,1-1.907-8.4v-1.384A19.293,19.293,0,0,1-8.89-25.748a14.622,14.622,0,0,1,5.076-6A12.444,12.444,0,0,1,3.23-33.9a11.642,11.642,0,0,1,9.105,3.968q3.538,3.968,3.538,10.428v1.753H-9.075v1.812A16.71,16.71,0,0,0-7.367-8.43,13.437,13.437,0,0,0-2.661-3.011,11.642,11.642,0,0,0,3.845-1.046,13.244,13.244,0,0,0,9.552-2.161,11.608,11.608,0,0,0,13.72-5.6l1.169.831Q11.167.615,3.845.615ZM3.23-32.238a10.868,10.868,0,0,0-8.244,3.615,15.394,15.394,0,0,0-3.968,9.213H14.212v-.4a14.054,14.054,0,0,0-1.43-6.291,11.029,11.029,0,0,0-3.937-4.522A10.146,10.146,0,0,0,3.23-32.238Zm43.466.615H33.623V0H31.961V-31.623h-12.4v-1.661H46.7Z" transform="translate(902 10508)" fill="#fffefe" opacity="0.997"/>
    <path id="Path_398" data-name="Path 398" d="M17.515-22.445H5v8.766H10.99a10.287,10.287,0,0,1,4.283.822A6.144,6.144,0,0,1,18.038-10.5a6.731,6.731,0,0,1,.955,3.627,6.284,6.284,0,0,1-2.142,5.039A8.823,8.823,0,0,1,10.924,0H2.938V-24.172H17.515ZM5-11.953V-1.727h5.977a6.409,6.409,0,0,0,4.383-1.388,4.8,4.8,0,0,0,1.577-3.8,4.635,4.635,0,0,0-1.527-3.65,6.358,6.358,0,0,0-4.283-1.388Zm32.738.365H26.43v9.861h13V0H24.388V-24.172H39.346v1.727H26.43v9.131H37.735Zm19.191-6.283a4.35,4.35,0,0,0-1.644-3.592A7.336,7.336,0,0,0,50.6-22.777a6.618,6.618,0,0,0-4.333,1.4,4.39,4.39,0,0,0-1.71,3.548H42.517a5.931,5.931,0,0,1,1.046-3.445,6.937,6.937,0,0,1,2.93-2.374A9.827,9.827,0,0,1,50.6-24.5a9.723,9.723,0,0,1,6.143,1.743,5.919,5.919,0,0,1,2.225,4.947,5.057,5.057,0,0,1-1.179,3.287,6.941,6.941,0,0,1-3.171,2.142q4.715,1.262,4.715,5.827a6.072,6.072,0,0,1-2.366,5.014A9.966,9.966,0,0,1,50.6.332a10.394,10.394,0,0,1-4.416-.921,6.906,6.906,0,0,1-3-2.49,6.54,6.54,0,0,1-1.013-3.627H44.21a4.736,4.736,0,0,0,1.81,3.815,6.946,6.946,0,0,0,4.582,1.5,7.813,7.813,0,0,0,4.914-1.384A4.472,4.472,0,0,0,57.292-6.5a4.368,4.368,0,0,0-1.577-3.688,8.072,8.072,0,0,0-4.864-1.251H47.763V-13.2h2.988a7.7,7.7,0,0,0,4.6-1.189A4.065,4.065,0,0,0,56.927-17.871ZM71.8-8.683l6.873-15.489h2.407L71.735-3.935l-.6,1.146A5.616,5.616,0,0,1,65.958.349,5.171,5.171,0,0,1,64.4.166l.183-1.66a5.323,5.323,0,0,0,1.395.116,3.735,3.735,0,0,0,3.3-2.108l.415-.747,1.046-2.158-9.147-17.78h2.341ZM102.913,0h-2.042V-22.445H87.191V0H85.149V-24.172h17.764Zm8.251-9.845V0h-2.042V-24.172h8.234a8.68,8.68,0,0,1,5.952,1.926,6.7,6.7,0,0,1,2.183,5.3,6.634,6.634,0,0,1-2.1,5.254,8.929,8.929,0,0,1-6.084,1.851Zm0-1.727h6.192a6.534,6.534,0,0,0,4.532-1.413,5.046,5.046,0,0,0,1.561-3.941,5.28,5.28,0,0,0-1.552-4,6.226,6.226,0,0,0-4.408-1.521h-6.325Zm32.24-.017H132.1v9.861h13V0H130.057V-24.172h14.958v1.727H132.1v9.131H143.4Zm22.479-12.584V0h-2.059V-11.007a24.4,24.4,0,0,1-6.541.946q-4.117,0-6.076-1.774T149.2-17.29v-6.882h2.059V-17.4a5.645,5.645,0,0,0,1.453,4.275,6.565,6.565,0,0,0,4.574,1.336,24.151,24.151,0,0,0,6.541-.946V-24.172ZM189.938,0H187.88V-11.588H174.067V0h-2.042V-24.172h2.042v10.857H187.88V-24.172h2.059Zm24.006-10.774a13.966,13.966,0,0,1-1.154,5.86,8.8,8.8,0,0,1-3.3,3.885A9.023,9.023,0,0,1,204.548.332a8.586,8.586,0,0,1-6.84-3.03,12.113,12.113,0,0,1-2.606-8.176v-2.49a13.88,13.88,0,0,1,1.17-5.852,8.94,8.94,0,0,1,3.312-3.918,8.952,8.952,0,0,1,4.931-1.37,9.034,9.034,0,0,1,4.922,1.345,8.834,8.834,0,0,1,3.3,3.8,13.683,13.683,0,0,1,1.212,5.694ZM211.9-13.4a10.683,10.683,0,0,0-1.976-6.84,6.55,6.55,0,0,0-5.412-2.474,6.542,6.542,0,0,0-5.371,2.482,10.769,10.769,0,0,0-2,6.931v2.523a10.683,10.683,0,0,0,1.992,6.815,6.536,6.536,0,0,0,5.412,2.515,6.484,6.484,0,0,0,5.412-2.482,10.967,10.967,0,0,0,1.942-6.915Zm21.781-9.048H221.149V0h-2.042V-24.172h14.576Zm22.03,11.671a13.966,13.966,0,0,1-1.154,5.86,8.8,8.8,0,0,1-3.3,3.885A9.023,9.023,0,0,1,246.317.332a8.586,8.586,0,0,1-6.84-3.03,12.113,12.113,0,0,1-2.606-8.176v-2.49a13.88,13.88,0,0,1,1.17-5.852,8.94,8.94,0,0,1,3.312-3.918,8.952,8.952,0,0,1,4.931-1.37,9.034,9.034,0,0,1,4.922,1.345,8.834,8.834,0,0,1,3.3,3.8,13.683,13.683,0,0,1,1.212,5.694ZM253.672-13.4a10.683,10.683,0,0,0-1.976-6.84,6.55,6.55,0,0,0-5.412-2.474,6.542,6.542,0,0,0-5.371,2.482,10.769,10.769,0,0,0-2,6.931v2.523a10.683,10.683,0,0,0,1.992,6.815,6.536,6.536,0,0,0,5.412,2.515,6.484,6.484,0,0,0,5.412-2.482,10.967,10.967,0,0,0,1.942-6.915ZM8.5,25.645H5.18V37H3.138V12.828H5.18v11.09H8.4l9.347-11.09H20.32L10.393,24.707,21.051,37h-2.54Zm29.617-.232H26.812v9.861h13V37H24.77V12.828H39.728v1.727H26.812v9.131H38.117ZM60,12.828H62.04V37H60V16.314L46.235,37H44.177V12.828h2.059V33.5ZM58.039,6.885a3.967,3.967,0,0,1-1.3,3.088,5.761,5.761,0,0,1-6.973.008,3.937,3.937,0,0,1-1.32-3.1h1.693a2.673,2.673,0,0,0,.822,2.108,3.317,3.317,0,0,0,2.283.73,3.224,3.224,0,0,0,2.283-.764,2.7,2.7,0,0,0,.822-2.075Zm26.612,7.67H76.367V37H74.325V14.555H66.058V12.828H84.651ZM101.9,25.412H90.595v9.861h13V37H88.553V12.828h14.958v1.727H90.595v9.131H101.9Zm8.035,1.743V37h-2.042V12.828h8.234a8.68,8.68,0,0,1,5.952,1.926,6.7,6.7,0,0,1,2.183,5.3,6.634,6.634,0,0,1-2.1,5.254,8.929,8.929,0,0,1-6.084,1.851Zm0-1.727h6.192a6.534,6.534,0,0,0,4.532-1.413,5.046,5.046,0,0,0,1.561-3.941,5.28,5.28,0,0,0-1.552-4,6.226,6.226,0,0,0-4.408-1.521h-6.325Zm34.78-12.6h2.042V37h-2.042V16.314L130.953,37h-2.059V12.828h2.059V33.5ZM170.88,37h-2.059V25.412H155.009V37h-2.042V12.828h2.042V23.686h13.813V12.828h2.059Zm20.735-22.445H179.081V37h-2.042V12.828h14.576ZM208.831,30.21H197.857L195.367,37h-2.142l9.147-24.172h1.942L213.463,37h-2.125Zm-10.343-1.727h9.7l-4.848-13.165Z" transform="translate(879 10540)" fill="#fffefe" opacity="0.997"/>
    <path id="Path_389" data-name="Path 389" d="M238.154,75.033a5.992,5.992,0,0,0,1.589-4.07h-.007l.019-7.628,5.919-3.3.046-.022c.035-.016.069-.033.1-.05l.076-.04a1.856,1.856,0,0,0,.22-.123,6.019,6.019,0,0,0,2.194-8.077,1.823,1.823,0,0,0-.092-.163l-3.77-6.569,3.531-5.911.056-.088h0l.023-.037.016-.029c.019-.028.037-.058.054-.088a6.013,6.013,0,0,0-2.189-8.218h0l-6.611-3.839.1-6.936a1.806,1.806,0,0,0,.011-.2V19.6a6,6,0,0,0-1.762-4.251l0,0a6,6,0,0,0-4.247-1.765v.007l-7.628-.019-3.3-5.912c-.02-.05-.044-.1-.069-.149s-.067-.125-.109-.2l-.007-.013a6.019,6.019,0,0,0-8.206-2.243l-.013.006-6.644,3.814L201.626,5.39l-.065-.043-.092-.059,0,0-.043-.026-.024-.015c-.029-.019-.06-.038-.091-.057a6.014,6.014,0,0,0-8.218,2.191L189.251,14l-6.936-.1c-.066-.006-.132-.01-.2-.01h-.048a5.981,5.981,0,0,0-4.126,1.647c-.043.036-.085.074-.125.114a5.994,5.994,0,0,0-1.761,4.25h.007l-.019,7.627-5.919,3.3-.048.023c-.034.016-.069.032-.1.049l-.137.073h0l0,0-.04.022h0l-.006,0h0l-.012.006a6.018,6.018,0,0,0-2.243,8.206l.006.013,3.813,6.644L167.86,51.7l-.044.064-.058.091,0,0-.026.043-.013.022c-.02.031-.039.062-.058.094a6.014,6.014,0,0,0,2.191,8.218l6.611,3.838-.1,6.937a1.8,1.8,0,0,0-.011.2v.048a5.982,5.982,0,0,0,1.03,3.365l-14.667,25.4a1.911,1.911,0,0,0,2.338,2.769l13.092-5.192,2.05,13.937h0a1.914,1.914,0,0,0,3.551.682l14.8-25.637a5.989,5.989,0,0,0,3.056-.745,1.7,1.7,0,0,0,.163-.092l6.569-3.77,6,3.587h0a5.969,5.969,0,0,0,2.317.845l14.977,25.942a1.918,1.918,0,0,0,3.6-.6l2.05-13.937,13.092,5.192h0a1.912,1.912,0,0,0,2.361-2.727ZM183.186,105.54l-1.6-10.88a1.916,1.916,0,0,0-2.173-1.619,1.893,1.893,0,0,0-.567.175l-10.1,4,11.7-20.263a5.964,5.964,0,0,0,1.485.3l.03,0,.031,0,.03,0,.031,0h.031l.03,0h.248v-.007l7.628.019c4.336,7.8,2.983,5.3,3.414,6.148h0a6.148,6.148,0,0,0,1.5,1.81Zm36.153-23.9-.134.187a2.125,2.125,0,0,1-.542.48,2.217,2.217,0,0,1-.825.308h0a1.728,1.728,0,0,1-.182.02h0c-1.077.078-.924-.183-8.324-4.516A1.91,1.91,0,0,0,207.4,78.1l0,0-7.611,4.368-.006,0a2.186,2.186,0,0,1-1.657.206,2.152,2.152,0,0,1-1.31-1h0l-.007-.012-.006-.012h0a3.8,3.8,0,0,0-.182-.337v0l0,0-3.827-6.865a1.912,1.912,0,0,0-1.74-.982l-8.684-.022v-.007h-.141a2.17,2.17,0,0,1-.963-.29l-.005,0,0,0-.01-.006-.007,0,0,0-.011-.006-.008,0h0a2.2,2.2,0,0,1-.248-.183h0c-.047-.039-.091-.079-.134-.122l0,0,0,0a2.171,2.171,0,0,1-.637-1.538c0-.05,0-.1-.005-.149L180.305,63a1.91,1.91,0,0,0-.954-1.677l0,0-7.58-4.4a2.188,2.188,0,0,1-.8-2.987l.016-.028,0,0,.058-.091c.033-.052.062-.105.09-.158l4.062-6.8a1.91,1.91,0,0,0,.018-1.931l0,0L170.908,37.4c-.025-.048-.05-.094-.079-.14a2.192,2.192,0,0,1,.784-2.894c.05-.026.1-.055.146-.085l.06-.034,0,0c.04-.018.08-.039.119-.06h0l6.938-3.869a1.912,1.912,0,0,0,.982-1.74l.022-8.684h.007a2.169,2.169,0,0,1,.637-1.537c.024-.024.046-.047.068-.072a2.176,2.176,0,0,1,1.47-.565c.05,0,.1,0,.149-.005l8.107.121A1.91,1.91,0,0,0,192,16.882h0L196.4,9.3a2.186,2.186,0,0,1,2.987-.8l.027.016,0,0,.092.058a1.7,1.7,0,0,0,.158.09l6.8,4.062a1.913,1.913,0,0,0,1.931.019l0,0,7.529-4.321q.071-.037.14-.079a2.2,2.2,0,0,1,2.895.785c.018.037.038.071.059.106l.016.031.04.073,0,.007a1.806,1.806,0,0,0,.1.185l3.826,6.865a1.912,1.912,0,0,0,1.74.982l8.685.022v.007a2.168,2.168,0,0,1,1.538.629l0,0,0,0a2.171,2.171,0,0,1,.636,1.538c0,.05,0,.1.006.149l-.122,8.107a1.914,1.914,0,0,0,.954,1.677l0,0,7.58,4.4h0a2.184,2.184,0,0,1,.795,2.985l-.025.045-.052.081-.04.067-4.112,6.882a1.913,1.913,0,0,0-.019,1.931l0,0,4.368,7.611,0,.006a2.191,2.191,0,0,1-.816,2.981l-.014.008-.071.041-.061.034,0,0c-.04.018-.08.039-.12.06h0l-6.938,3.868a1.913,1.913,0,0,0-.982,1.741l-.022,8.684H235.9a2.165,2.165,0,0,1-.637,1.537,2.274,2.274,0,0,1-1.728.642h0l-7.945-.12a1.914,1.914,0,0,0-1.8.95Zm17.1,11.735a1.912,1.912,0,0,0-2.6,1.5h0l-1.6,10.88L220.608,85.61l.079-.048a6,6,0,0,0,1.546-1.388l0,0c.2-.255,4.6-7.8,4.312-7.31,2.05.033,4.477.07,7.507.106h.017l.016,0a5.835,5.835,0,0,0,.721-.086l11.869,20.558Z" transform="translate(979.484 10471.334)" fill="#fffdfd"/>
    <path id="Path_390" data-name="Path 390" d="M235.742,46.864a26,26,0,1,0-7.616,18.385A25.919,25.919,0,0,0,235.742,46.864Zm-26,22.163a22.161,22.161,0,1,1,15.672-6.49A22.094,22.094,0,0,1,209.741,69.027Z" transform="translate(977.641 10469.897)" fill="#fffdfd"/>
    <path id="Path_391" data-name="Path 391" d="M224.991,41.8l0,0,0,0a3.832,3.832,0,0,0-2.714-1.127v.007l-6.013.012-1.81-5.608-.023-.079a3.873,3.873,0,0,0-.945-1.564,3.821,3.821,0,0,0-1.345-.876,1.963,1.963,0,0,0-.418-.134,3.843,3.843,0,0,0-4.55,2.338,1.941,1.941,0,0,0-.122.355l-1.8,5.567-5.734-.011h0a3.853,3.853,0,0,0-2.535,6.96l4.866,3.521-1.867,5.711h0c-.019.06-.036.122-.049.184a3.839,3.839,0,0,0,5.967,4.108l4.86-3.544L215.384,61a3.874,3.874,0,0,0,1.746.842,3.818,3.818,0,0,0,1.923-.117l.008,0a3.844,3.844,0,0,0,2.473-4.841l0-.009-1.868-5.711,4.786-3.462.021-.014a1.815,1.815,0,0,0,.248-.2,3.853,3.853,0,0,0,.981-1.219l-.006,0a3.823,3.823,0,0,0-.7-4.464Zm-2.7,2.731-.006,0,0,0c-.037.026-.072.054-.106.083l-5.888,4.26a1.919,1.919,0,0,0-.674,2.214l2.24,6.846c.012.044.024.086.037.128l0,.005,0,0-.016.005h0l-.011-.005a1.836,1.836,0,0,0-.218-.16l-5.759-4.2a1.911,1.911,0,0,0-2.275.019l-5.956,4.344a.027.027,0,0,1-.018,0l-.008-.005v-.006l0-.016c.01-.031.019-.063.027-.094l2.269-6.936a1.916,1.916,0,0,0-.7-2.143h0l-6-4.339-.011-.01a.021.021,0,0,1,.006-.016s0,0,0,0a.044.044,0,0,1,.022,0,1.86,1.86,0,0,0,.267,0l7.132.014a1.912,1.912,0,0,0,1.821-1.326h0l2.274-7.042h0s.006-.007.011-.011a.027.027,0,0,1,.012,0h0l.007,0,0,.006c.011.038.025.075.038.111l2.238,6.933a1.913,1.913,0,0,0,1.906,1.326l7.32-.014v.007h.01l0,0,0,.008c0,.015.013,0,.008.007Z" transform="translate(976.633 10468.907)" fill="#fffdfd"/>
    <path id="Path_400" data-name="Path 400" d="M51.536,0H31.151V-79.816l-19.882,7.68V-89.076l38.114-15.576h2.153ZM74.442-51.393l5.168-53.115h50.6v17.37H96.262L94.4-64.743q.861-.574,2.082-1.256a22.024,22.024,0,0,1,2.8-1.292,22.778,22.778,0,0,1,3.409-1,18.172,18.172,0,0,1,3.84-.395,26.807,26.807,0,0,1,11.556,2.369,22.388,22.388,0,0,1,8.434,6.891,31.952,31.952,0,0,1,5.168,11.054,57.272,57.272,0,0,1,1.759,14.858,46.625,46.625,0,0,1-1.866,13.279,32.626,32.626,0,0,1-5.67,11.125,27.884,27.884,0,0,1-9.546,7.68,29.828,29.828,0,0,1-13.494,2.871A31.84,31.84,0,0,1,91.6-.61,29.4,29.4,0,0,1,81.871-6.6a29.675,29.675,0,0,1-6.855-9.618,31.605,31.605,0,0,1-2.656-12.92h20.1q.5,6.532,3.23,10.121a8.453,8.453,0,0,0,7.034,3.589,7.9,7.9,0,0,0,4.881-1.507,11.013,11.013,0,0,0,3.266-4.091,21.3,21.3,0,0,0,1.794-6.1,50.379,50.379,0,0,0,.538-7.608,35.936,35.936,0,0,0-.718-7.465,16.858,16.858,0,0,0-2.261-5.742,11.21,11.21,0,0,0-3.876-3.7,11.065,11.065,0,0,0-5.563-1.328,12.72,12.72,0,0,0-3.768.5,10.808,10.808,0,0,0-2.8,1.292,9.406,9.406,0,0,0-2.046,1.83,25.565,25.565,0,0,0-1.579,2.117Z" transform="translate(710 10579)" fill="#fffefe"/>
  </g>
</svg>
