<svg id="ico-loc-yellow" xmlns="http://www.w3.org/2000/svg" width="7.114" height="11.383" viewBox="0 0 7.114 11.383">
  <path id="Path_160" data-name="Path 160" d="M-2540.751,323.724a3.557,3.557,0,0,0-3.557,3.557c0,3.4,3.557,7.825,3.557,7.825s3.557-4.429,3.557-7.825A3.557,3.557,0,0,0-2540.751,323.724Zm0,5.52a1.921,1.921,0,0,1-1.92-1.921,1.92,1.92,0,0,1,1.92-1.921,1.921,1.921,0,0,1,1.921,1.921A1.921,1.921,0,0,1-2540.751,329.244Z" transform="translate(2544.308 -323.724)" fill="#e89d25"/>
</svg>
