<svg xmlns="http://www.w3.org/2000/svg" width="50.537" height="50.537" viewBox="0 0 50.537 50.537">
  <g id="ico-personal" transform="translate(-601.75 -1341.75)">
    <path id="Path_339" data-name="Path 339" d="M635.3,1374.483h-1.06v-1.048a.815.815,0,0,0-1.141-.747l-.606.264v-.782a11.751,11.751,0,0,0,6.263-10.17,4.344,4.344,0,0,0,.006-8.537v-2.7a9.018,9.018,0,0,0-9.008-9.009h-5.466a9.018,9.018,0,0,0-9.008,9.009v2.7a4.344,4.344,0,0,0,.006,8.537,11.751,11.751,0,0,0,6.263,10.17v.782l-.605-.264a.815.815,0,0,0-1.141.747v1.048h-1.06a17.008,17.008,0,0,0-16.989,16.989.815.815,0,0,0,1.63,0,15.376,15.376,0,0,1,15.358-15.359h1.06v4.852a.815.815,0,0,0,.815.815.8.8,0,0,0,.253-.041l4.146-1.357h1.19v11.089a.815.815,0,0,0,1.63,0v-11.089h1.19l4.146,1.357a.8.8,0,0,0,.253.041.815.815,0,0,0,.815-.815v-4.852h1.06a15.376,15.376,0,0,1,15.359,15.359.815.815,0,0,0,1.63,0A17.008,17.008,0,0,0,635.3,1374.483Zm5.364-16.752a2.721,2.721,0,0,1-1.9,2.592v-5.184A2.722,2.722,0,0,1,640.662,1357.731Zm-23.755-6.973a7.386,7.386,0,0,1,7.378-7.378h5.466a7.386,7.386,0,0,1,7.378,7.378v3.932a8.172,8.172,0,0,1-5.573-4.183.816.816,0,0,0-1.248-.281,25.172,25.172,0,0,1-10.143,5.306,12.75,12.75,0,0,1-3.259.342Zm-3.532,6.973a2.722,2.722,0,0,1,1.9-2.592v5.184A2.721,2.721,0,0,1,613.375,1357.731Zm3.532,4.056v-4.278c.116,0,.238.007.374.007,2.249,0,7.122-.67,13.316-5.439a9.6,9.6,0,0,0,6.532,4.264v5.446a10.111,10.111,0,0,1-20.222,0Zm6.268,11.092a11.7,11.7,0,0,0,7.685,0v.784l-1.878.819h-3.93l-1.878-.819Zm-1.747,1.8.61.266.007,0,2.022.882v3.145l-2.64.864Zm6.909,4.073H625.7v-2.64h2.639Zm4.27,1.088-2.639-.864v-3.145l2.021-.882.008,0,.61-.266Z" fill="#fff"/>
    <path id="Path_340" data-name="Path 340" d="M624.023,1433.972a.815.815,0,0,0-.815.815v5.952a.815.815,0,1,0,1.63,0v-5.952A.815.815,0,0,0,624.023,1433.972Z" transform="translate(-11.463 -49.267)" fill="#fff"/>
    <path id="Path_341" data-name="Path 341" d="M686.107,1433.972a.815.815,0,0,0-.815.815v5.952a.815.815,0,1,0,1.63,0v-5.952A.815.815,0,0,0,686.107,1433.972Z" transform="translate(-44.63 -49.267)" fill="#fff"/>
    <path id="Path_342" data-name="Path 342" d="M645.88,1376.4a.815.815,0,1,0-1.63,0v1.32a.815.815,0,1,0,1.63,0Z" transform="translate(-22.705 -18.074)" fill="#fff"/>
    <path id="Path_343" data-name="Path 343" d="M665.065,1378.533a.815.815,0,0,0,.815-.815v-1.32a.815.815,0,1,0-1.63,0v1.32A.815.815,0,0,0,665.065,1378.533Z" transform="translate(-33.389 -18.074)" fill="#fff"/>
    <path id="Path_344" data-name="Path 344" d="M655.645,1387.982a.815.815,0,1,0-1.63,0,2.484,2.484,0,0,1-4.968,0,.815.815,0,1,0-1.63,0,4.114,4.114,0,0,0,8.228,0Z" transform="translate(-24.396 -24.263)" fill="#fff"/>
  </g>
</svg>
