<svg id="ico-mail" xmlns="http://www.w3.org/2000/svg" width="10.992" height="8.131" viewBox="0 0 10.992 8.131">
  <path id="Path_162" data-name="Path 162" d="M-2563.945,135.485l4.579,2.824a1.067,1.067,0,0,0,.553.14,1.071,1.071,0,0,0,.554-.14l4.58-2.824c.3-.184.58-.761.032-.761h-10.331C-2564.526,134.724-2564.244,135.3-2563.945,135.485Zm10.392,1.4-4.706,2.824a.936.936,0,0,1-.554.14.933.933,0,0,1-.553-.14l-4.707-2.824c-.238-.143-.237.025-.237.154v5.142a.767.767,0,0,0,.606.672h9.78a.767.767,0,0,0,.605-.672V137.04C-2553.317,136.911-2553.314,136.744-2553.553,136.887Z" transform="translate(2564.309 -134.724)" fill="#e89d25"/>
</svg>
