<svg xmlns="http://www.w3.org/2000/svg" width="48.256" height="37.479" viewBox="0 0 48.256 37.479">
  <g id="ico-delivery-truck" transform="translate(-305.75 -613.865)">
    <path id="Path_332" data-name="Path 332" d="M353.882,634.668,347.3,624.435a.779.779,0,0,0-.655-.357h-8.659v-9.434a.778.778,0,0,0-.778-.778H306.528a.778.778,0,0,0-.778.778v30.679a.778.778,0,0,0,.778.778h3.378a6.015,6.015,0,0,0,11.93,0h16.537a6.015,6.015,0,0,0,11.93,0h2.923a.778.778,0,0,0,.778-.778V635.089A.781.781,0,0,0,353.882,634.668Zm-46.575-19.247h29.123v29.123H321.837a6.015,6.015,0,0,0-11.93,0h-2.6Zm8.565,34.366a4.465,4.465,0,1,1,4.465-4.466h0A4.47,4.47,0,0,1,315.871,649.788Zm28.468,0a4.465,4.465,0,1,1,4.464-4.468v.006A4.47,4.47,0,0,1,344.339,649.788Zm8.11-5.243H350.3a6.015,6.015,0,0,0-11.93,0h-.387v-18.91h8.235l6.228,9.684Z" fill="#fff"/>
    <path id="Path_333" data-name="Path 333" d="M325.826,679.767a2.148,2.148,0,1,0,2.148,2.148A2.15,2.15,0,0,0,325.826,679.767Zm0,2.739a.591.591,0,1,1,.592-.591A.592.592,0,0,1,325.826,682.506Z" transform="translate(-9.954 -36.592)" fill="#fff"/>
    <path id="Path_334" data-name="Path 334" d="M389.833,679.767a2.148,2.148,0,1,0,2.148,2.148A2.15,2.15,0,0,0,389.833,679.767Zm0,2.739a.591.591,0,1,1,.591-.591A.592.592,0,0,1,389.833,682.506Z" transform="translate(-45.494 -36.592)" fill="#fff"/>
    <path id="Path_335" data-name="Path 335" d="M338.1,641.191a.778.778,0,0,0,0-1.557H335.78a9.776,9.776,0,0,0-6.319-8.372,3.379,3.379,0,0,0-6.75-.022,9.777,9.777,0,0,0-6.377,8.395h-2.262a.778.778,0,0,0,0,1.557ZM326.085,629.6a1.825,1.825,0,0,1,1.712,1.208,9.633,9.633,0,0,0-3.42-.011A1.824,1.824,0,0,1,326.085,629.6Zm-.028,2.606a8.209,8.209,0,0,1,8.16,7.43H317.9A8.209,8.209,0,0,1,326.057,632.2Z" transform="translate(-4.189 -7.872)" fill="#fff"/>
    <path id="Path_336" data-name="Path 336" d="M387.072,643.619h-5.063a.778.778,0,0,0-.778.778v5.972a.779.779,0,0,0,.778.778h8.9a.779.779,0,0,0,.655-1.2l-3.841-5.972A.777.777,0,0,0,387.072,643.619Zm-4.284,5.972v-4.415h3.86l2.84,4.415Z" transform="translate(-41.911 -16.521)" fill="#fff"/>
  </g>
</svg>
