<svg xmlns="http://www.w3.org/2000/svg" width="53.425" height="43.18" viewBox="0 0 53.425 43.18">
  <g id="ico-loc" transform="translate(-7.75 -1350.537)">
    <path id="Path_337" data-name="Path 337" d="M63.262,1373.9a6.984,6.984,0,1,0-6.984,6.984A6.992,6.992,0,0,0,63.262,1373.9Zm-12.305,0a5.322,5.322,0,1,1,5.322,5.322A5.328,5.328,0,0,1,50.956,1373.9Z" transform="translate(-21.815 -8.6)" fill="#fff"/>
    <path id="Path_338" data-name="Path 338" d="M42.943,1379.735c3.261-4.123,6.281-9.322,6.281-14.437a14.761,14.761,0,1,0-29.522,0c0,4.219,2.152,9.069,6.394,14.427-13.485,1.088-18.346,4.2-18.346,6.828,0,2.173,2.763,3.951,8.214,5.285a81.526,81.526,0,0,0,18.5,1.878,81.526,81.526,0,0,0,18.5-1.878c5.451-1.334,8.214-3.112,8.214-5.285C61.175,1383.94,56.343,1380.834,42.943,1379.735Zm-9.014,8.164a.832.832,0,0,0,1.059.008,54.1,54.1,0,0,0,4.073-3.782c7.053.458,10.345,1.811,10.536,2.412-.273.906-5.71,2.594-15.134,2.594s-14.861-1.689-15.134-2.559c.193-.642,3.514-2,10.62-2.452C32.139,1386.392,33.828,1387.815,33.929,1387.9Zm.534-35.7a13.114,13.114,0,0,1,13.1,13.1c0,8.931-10.576,18.675-13.092,20.866-2.51-2.236-13.106-12.193-13.106-20.866A13.114,13.114,0,0,1,34.463,1352.2Zm0,39.856c-15.52,0-25.051-3.2-25.051-5.5,0-1.676,5.584-4.393,17.974-5.258q.561.657,1.108,1.262c-4.219.356-10.825,1.34-10.825,4,0,3.347,10.556,4.24,16.794,4.24s16.794-.893,16.794-4.24c0-.958-1.09-3.183-10.723-3.988q.552-.606,1.117-1.262c12.313.874,17.863,3.582,17.863,5.25C59.513,1388.851,49.983,1392.055,34.463,1392.055Z" transform="translate(0 0)" fill="#fff"/>
  </g>
</svg>
