<svg xmlns="http://www.w3.org/2000/svg" width="46.06" height="49.755" viewBox="0 0 46.06 49.755">
  <g id="ico-menu" transform="translate(-176.53 -469.684)">
    <path id="Path_322" data-name="Path 322" d="M221.673,470.6a3.114,3.114,0,0,0-2.206-.916H179.652a3.114,3.114,0,0,0-2.206.916l0,0a3.115,3.115,0,0,0-.919,2.2v43.512a3.109,3.109,0,0,0,.917,2.2l0,0a3.109,3.109,0,0,0,2.2.916h39.815a3.109,3.109,0,0,0,2.2-.916l0,0a3.109,3.109,0,0,0,.917-2.2V472.806a3.115,3.115,0,0,0-.919-2.2Zm-42.805,46.5a1.111,1.111,0,0,1-.324-.784V472.806a1.1,1.1,0,0,1,.323-.782v0l0,0a1.1,1.1,0,0,1,.782-.326h18.9v45.728h-18.9A1.11,1.11,0,0,1,178.868,517.1Zm41.708-.784a1.107,1.107,0,0,1-1.108,1.108h-18.9V471.7h18.9a1.1,1.1,0,0,1,.782.326l0,0v0a1.1,1.1,0,0,1,.323.782Z" transform="translate(0 0)" fill="#fff"/>
    <path id="Path_323" data-name="Path 323" d="M196.873,485.742H186.537a1.007,1.007,0,0,0-1.007,1.007V498.22a6.06,6.06,0,0,0,5.323,6.023l.032,8.392h-2.874a1,1,0,0,0,0,2.006h7.721a1,1,0,1,0,0-2.006h-2.841l-.033-8.422a6.093,6.093,0,0,0,5.021-5.993V486.749A1.007,1.007,0,0,0,196.873,485.742Zm-1.006,2.014v3.722h-8.322v-3.722Zm-1.2,13.351a4.078,4.078,0,0,1-2.887,1.2h-.145a4.1,4.1,0,0,1-4.089-4.089v-4.729h8.322v4.729A4.079,4.079,0,0,1,194.665,501.107Z" transform="translate(-3.156 -5.632)" fill="#fff"/>
    <path id="Path_324" data-name="Path 324" d="M220.138,485.774l0,0a3.112,3.112,0,0,0,2.2.916h6.4a3.109,3.109,0,0,0,2.2-.916l0,0a3.108,3.108,0,0,0,.917-2.2V482.2a3.129,3.129,0,0,0-3.122-3.122h-6.4a3.113,3.113,0,0,0-2.139.855c-.023.02-.045.04-.067.061a3.114,3.114,0,0,0-.917,2.206v1.366a3.114,3.114,0,0,0,.917,2.206Zm1.1-3.57a1.105,1.105,0,0,1,.326-.782l.038-.04a1.106,1.106,0,0,1,.745-.286h6.4a1.113,1.113,0,0,1,1.108,1.108v1.366a1.106,1.106,0,0,1-1.108,1.108h-6.4a1.113,1.113,0,0,1-.784-.324l0,0a1.105,1.105,0,0,1-.326-.782Z" transform="translate(-14.972 -3.296)" fill="#fff"/>
    <path id="Path_325" data-name="Path 325" d="M231.4,496.465H218.431a1.007,1.007,0,1,0,0,2.013H231.4a1.007,1.007,0,0,0,0-2.013Z" transform="translate(-14.342 -9.393)" fill="#fff"/>
    <path id="Path_326" data-name="Path 326" d="M231.4,503.935H218.431a1.007,1.007,0,1,0,0,2.013H231.4a1.007,1.007,0,0,0,0-2.013Z" transform="translate(-14.342 -12.012)" fill="#fff"/>
    <path id="Path_327" data-name="Path 327" d="M231.4,511.405H218.431a1.007,1.007,0,1,0,0,2.014H231.4a1.007,1.007,0,0,0,0-2.014Z" transform="translate(-14.342 -14.632)" fill="#fff"/>
    <path id="Path_328" data-name="Path 328" d="M231.4,518.875H218.431a1.007,1.007,0,1,0,0,2.014H231.4a1.007,1.007,0,0,0,0-2.014Z" transform="translate(-14.342 -17.252)" fill="#fff"/>
    <path id="Path_329" data-name="Path 329" d="M231.4,526.345H218.431a1.007,1.007,0,1,0,0,2.014H231.4a1.007,1.007,0,0,0,0-2.014Z" transform="translate(-14.342 -19.872)" fill="#fff"/>
    <path id="Path_330" data-name="Path 330" d="M231.4,533.816H218.431a1.007,1.007,0,1,0,0,2.013H231.4a1.007,1.007,0,0,0,0-2.013Z" transform="translate(-14.342 -22.492)" fill="#fff"/>
  </g>
</svg>
