<svg xmlns="http://www.w3.org/2000/svg" width="761.383" height="84.346" viewBox="0 0 761.383 84.346">
  <g id="line-icon-food" transform="translate(-317 -7250)">
    <g id="Group_359" data-name="Group 359" transform="translate(283.958 7229.919)">
      <path id="Path_364" data-name="Path 364" d="M507.334,98.367a5.563,5.563,0,0,0,5.551,5.552h19.521a5.532,5.532,0,0,0,3.916-1.63l0,0,0,0a5.536,5.536,0,0,0,1.63-3.922V52.421a9.516,9.516,0,0,0-8-9.4V25.632a1.551,1.551,0,0,0-1.551-1.551H516.886a1.551,1.551,0,0,0-1.55,1.551V43.026a9.516,9.516,0,0,0-8,9.4V98.367Zm27.522-11.242h-24.42V71.49h24.42Zm-.717,12.975a2.455,2.455,0,0,1-1.733.717H512.885a2.458,2.458,0,0,1-2.449-2.45v-8.14h24.42v8.14a2.445,2.445,0,0,1-.72,1.73Zm-15.7-63.524h8.418v6.293h-8.418Zm0-9.393h8.418v6.292h-8.418Zm-6.106,20.683a6.432,6.432,0,0,1,4.555-1.9h11.52a6.473,6.473,0,0,1,6.45,6.451V68.388h-24.42V52.421A6.433,6.433,0,0,1,512.331,47.866Z" fill="#fff"/>
      <path id="Path_365" data-name="Path 365" d="M486.654,87.1l.054,13.726h-4.729a1.545,1.545,0,0,0,0,3.089h12.493a1.545,1.545,0,0,0,0-3.09H489.8l-.054-13.774a9.767,9.767,0,0,0,8.123-9.625V58.865a1.551,1.551,0,0,0-1.551-1.551H479.593a1.552,1.552,0,0,0-1.551,1.551V77.424a9.721,9.721,0,0,0,8.612,9.674ZM492.8,82.15a6.672,6.672,0,0,1-4.725,1.967h-.235a6.716,6.716,0,0,1-6.693-6.693V69.695h13.62v7.729A6.672,6.672,0,0,1,492.8,82.15Zm1.967-21.734v6.177h-13.62V60.416Z" fill="#fff"/>
    </g>
    <g id="Group_361" data-name="Group 361" transform="translate(388.692 7082.171)">
      <path id="Path_367" data-name="Path 367" d="M173.767,250.711a4.96,4.96,0,0,0,3.513,1.46h69.44a4.983,4.983,0,0,0,4.972-4.973V209.223a4.959,4.959,0,0,0-1.459-3.513l0,0a4.96,4.96,0,0,0-3.51-1.463H242.6V199.8a1.545,1.545,0,0,0-.286-.9l-7.039-11.8V173.38a1.551,1.551,0,0,0-1.551-1.551H223.168a1.552,1.552,0,0,0-1.551,1.551v13.727l-7.1,11.9a1.541,1.541,0,0,0-.22.793h0v4.448h-4.585V199.8a1.536,1.536,0,0,0-.286-.9l-7.038-11.8V173.38a1.552,1.552,0,0,0-1.551-1.551H190.276a1.551,1.551,0,0,0-1.55,1.551v13.727l-7.1,11.9a1.541,1.541,0,0,0-.22.793H181.4v4.448h-4.12a4.963,4.963,0,0,0-3.505,1.458l0,0,0,0,0,0a4.962,4.962,0,0,0-1.459,3.507V247.2a4.955,4.955,0,0,0,1.366,3.411C173.7,250.644,173.735,250.678,173.767,250.711Zm50.952-69.844h7.453v5.107h-7.453Zm3.726,8.209h2.79l-2.79,5.663-2.789-5.663Zm-3.726-14.145h7.453v2.834h-7.453Zm-7.326,25.289,5.644-9.459,4.021,8.163a1.547,1.547,0,0,0,2.774,0h0l4.021-8.163,5.645,9.459v4.03h-22.1Zm-25.566-19.353h7.454v5.107h-7.454Zm3.727,8.209h2.79l-2.79,5.663-2.789-5.663Zm-3.727-14.145h7.454v2.834h-7.454ZM184.5,200.22l5.644-9.459,4.021,8.163a1.547,1.547,0,0,0,2.774,0h0l4.021-8.163,5.644,9.459v4.03H184.5Zm-9.093,9a1.859,1.859,0,0,1,.545-1.32l.006-.006a1.861,1.861,0,0,1,1.32-.545h69.44a1.861,1.861,0,0,1,1.32.545l0,0,0,0a1.862,1.862,0,0,1,.551,1.32V247.2a1.881,1.881,0,0,1-1.871,1.871H177.28a1.864,1.864,0,0,1-1.32-.551l-.063-.059a1.861,1.861,0,0,1-.488-1.261Z" fill="#fff"/>
      <path id="Path_368" data-name="Path 368" d="M200.227,223.423h23.546a5.286,5.286,0,0,0,0-10.571H200.227a5.286,5.286,0,0,0,0,10.571Zm-1.541-6.827a2.178,2.178,0,0,1,1.541-.643h23.546a2.184,2.184,0,0,1,0,4.368H200.227a2.179,2.179,0,0,1-1.541-3.725Z" fill="#fff"/>
    </g>
    <g id="Group_362" data-name="Group 362" transform="translate(743.5 7176.813)">
      <path id="Path_369" data-name="Path 369" d="M329.062,129.3h-2.633a8.53,8.53,0,0,0,.84-3.595c0-8.6-13.431-15.334-30.577-15.334S266.114,117.1,266.114,125.7a8.548,8.548,0,0,0,.839,3.595h-2.632a5.822,5.822,0,0,0,0,11.645h1.191v1.836c0,4.508,2.69,7.2,7.2,7.2h47.966c4.507,0,7.2-2.69,7.2-7.2v-1.836h1.188a5.822,5.822,0,0,0,0-11.645Zm-32.37-15.933c14.95,0,27.582,5.649,27.582,12.338a6.135,6.135,0,0,1-1.267,3.592l-52.628,0a6.132,6.132,0,0,1-1.269-3.595C269.11,119.014,281.742,113.364,296.692,113.364Zm32.37,24.582H286.181a1.5,1.5,0,1,0,0,3h38.7v1.836c0,4.2-3.163,4.2-4.2,4.2H272.71c-4.2,0-4.2-3.163-4.2-4.2v-1.836h9.518a1.5,1.5,0,1,0,0-3h-13.7a2.827,2.827,0,0,1,0-5.654h64.74a2.827,2.827,0,0,1,0,5.654Z" transform="translate(0 7.557)" fill="#fff"/>
      <path id="Path_370" data-name="Path 370" d="M274.623,123.872a1.489,1.489,0,0,0,.99-.374l7.77-6.845A1.5,1.5,0,0,0,281.4,114.4l-7.769,6.846a1.5,1.5,0,0,0,.99,2.621Z" transform="translate(7.279 9.38)" fill="#fff"/>
      <path id="Path_371" data-name="Path 371" d="M295.965,123.5a1.5,1.5,0,1,0,1.98-2.247l-7.769-6.846a1.5,1.5,0,0,0-1.981,2.248Z" transform="translate(14.527 9.38)" fill="#fff"/>
      <path id="Path_372" data-name="Path 372" d="M284.5,124.074a1.5,1.5,0,0,0,1.5-1.5v-7.451a1.5,1.5,0,0,0-3,0v7.451A1.5,1.5,0,0,0,284.5,124.074Z" transform="translate(12.194 9.178)" fill="#fff"/>
      <path id="Path_373" data-name="Path 373" d="M270.02,114.739a1.5,1.5,0,0,0,2.265,1.962c3.97-4.582,1.535-7.951-.076-10.181-1.628-2.251-2.444-3.382-.009-5.765a1.5,1.5,0,1,0-2.094-2.142c-4.28,4.189-1.9,7.481-.325,9.66C271.38,110.488,272.438,111.951,270.02,114.739Z" transform="translate(4.571 1.493)" fill="#fff"/>
      <path id="Path_374" data-name="Path 374" d="M279.729,111.739a1.5,1.5,0,0,0,2.265,1.962c3.97-4.581,1.535-7.951-.076-10.181-1.628-2.251-2.444-3.382-.009-5.765a1.5,1.5,0,1,0-2.094-2.142c-4.28,4.189-1.9,7.481-.325,9.66C281.089,107.488,282.147,108.951,279.729,111.739Z" transform="translate(9.403)" fill="#fff"/>
      <path id="Path_375" data-name="Path 375" d="M288.436,111.739A1.5,1.5,0,0,0,290.7,113.7c3.97-4.581,1.535-7.951-.076-10.181-1.628-2.251-2.444-3.382-.009-5.765a1.5,1.5,0,1,0-2.094-2.142c-4.28,4.189-1.9,7.481-.325,9.66C289.8,107.488,290.854,108.951,288.436,111.739Z" transform="translate(13.737)" fill="#fff"/>
      <path id="Path_376" data-name="Path 376" d="M298.145,114.739a1.5,1.5,0,0,0,2.265,1.962c3.97-4.582,1.535-7.951-.076-10.181-1.628-2.251-2.444-3.382-.009-5.765a1.5,1.5,0,1,0-2.094-2.142c-4.28,4.189-1.9,7.481-.325,9.66C299.505,110.488,300.563,111.951,298.145,114.739Z" transform="translate(18.569 1.493)" fill="#fff"/>
    </g>
    <g id="Group_363" data-name="Group 363" transform="translate(284.267 7194.015)">
      <path id="Path_377" data-name="Path 377" d="M216.732,104.025l-.019,0h-.019l-.013,0c-.84-.024-1.686-.039-2.538-.039-1.969,0-3.907.067-5.815.187h0c-20.44,1.294-36.752,9.259-36.752,18.547,0,17.249,19.729,17.249,42.571,17.249s42.571,0,42.571-17.249C256.712,112.947,238.658,104.638,216.732,104.025Zm17.406,5.352a43.74,43.74,0,0,0,.716,6.95c-2.147-1.926-4.533-4.714-5.247-7.959C231.176,108.664,232.686,109,234.138,109.377Zm-20-2.424c.359,0,.714.007,1.074.012a52.091,52.091,0,0,0,.8,8.673c-2.456-1.96-5.388-4.985-6.045-8.585Q212.022,106.954,214.142,106.953Zm-18.183,1.984a50.8,50.8,0,0,0,.967,7.8,13.748,13.748,0,0,1-4.51-6.885Q194.127,109.358,195.958,108.937ZM214.142,137c-24.553,0-39.6-.689-39.6-14.281,0-4.226,5.815-8.845,15.042-11.985,2.019,7.528,9.308,10.9,9.64,11.05a1.484,1.484,0,0,0,1.848-2.171c-1.457-2.206-2.017-8.062-2.17-11.285a81.191,81.191,0,0,1,8.082-1.075c1.213,7.956,10.726,13.176,11.156,13.407a1.484,1.484,0,0,0,1.944-2.123c-1.421-2.152-1.828-8.074-1.9-11.488,2.889.133,5.669.41,8.324.8.973,8.1,10.178,13.619,10.59,13.862a1.484,1.484,0,0,0,1.99-2.1c-1.307-1.981-1.8-6.436-1.947-9.386,10.126,3.136,16.6,8.034,16.6,12.492C253.743,136.312,238.694,137,214.142,137Z" transform="translate(0)" fill="#fff"/>
    </g>
    <g id="Group_364" data-name="Group 364" transform="translate(456.239 6783.958)">
      <path id="Path_378" data-name="Path 378" d="M535.058,495.381h-1.213l.03-.149a1.535,1.535,0,0,0-.055-.818h0l-4.251-12.12L532.1,469.85a1.546,1.546,0,0,0-1.205-1.824l-9.6-1.952a1.546,1.546,0,0,0-1.823,1.2l-2.531,12.442-8.649,9.5a1.541,1.541,0,0,0-.387.822l-1.086,5.341h-25.88a4.167,4.167,0,0,0-2.954,1.228l0,0,0,0a4.163,4.163,0,0,0-1.227,2.948h0a4.17,4.17,0,0,0,1.227,2.954l0,0a4.175,4.175,0,0,0,2.951,1.23h2.306l.115,1.286a18.3,18.3,0,0,0-2.62,4.6,15.857,15.857,0,0,0,.553,12.58,19.909,19.909,0,0,0,4.1,5.586l1.571,17.569a5.246,5.246,0,0,0,1.474,3.245c.032.032.066.063.1.091a4.507,4.507,0,0,0,3.139,1.258h32.636a4.523,4.523,0,0,0,3.24-1.349c.033-.034.065-.068.094-.1a5.272,5.272,0,0,0,1.38-3.141l1.57-17.57a19.843,19.843,0,0,0,4.1-5.586,16.094,16.094,0,0,0,1.594-6.941,15.93,15.93,0,0,0-1.041-5.637,18.286,18.286,0,0,0-2.62-4.6l.115-1.287h2.306a4.189,4.189,0,0,0,4.181-4.181h0a4.191,4.191,0,0,0-4.181-4.182Zm-3.152,25.507a15.206,15.206,0,0,1-.82,1.5l1.085-12.144c.067.158.13.318.191.478a12.864,12.864,0,0,1,.834,4.547A13.039,13.039,0,0,1,531.906,520.888Zm-5.141-40.307-3.285-.668-3.285-.668.9-4.437,6.57,1.337Zm-1.537,2.842-3.34,4.318-1.388-5.28Zm3.538-12.676-.482,2.369-6.57-1.336.482-2.37Zm-17.9,20.243L517.6,483.6l2.094,7.966a1.547,1.547,0,0,0,2.751.51l5.009-6.475,3.308,9.434-.071.348H509.976Zm-25.953,31.4a14.874,14.874,0,0,1-.821-1.5,13.047,13.047,0,0,1-1.29-5.622,12.866,12.866,0,0,1,.834-4.548c.061-.16.125-.32.191-.478l.235,2.629Zm40.512,23.972-.062.058a1.461,1.461,0,0,1-1.047.44H491.682a1.465,1.465,0,0,1-.992-.383l-.054-.057a2.131,2.131,0,0,1-.591-1.319l-.2-2.28,36.318-.01-.2,2.29A2.153,2.153,0,0,1,525.427,546.358Zm2.284-20.9-.131,1.459h0l-1.144,12.8-36.87.011-1.137-12.714h0l-.3-3.382-1.778-19.887h43.3Zm8.427-25.891a1.086,1.086,0,0,1-1.08,1.079H480.942a1.076,1.076,0,0,1-.762-.312l0,0,0,0a1.076,1.076,0,0,1-.318-.761h0a1.086,1.086,0,0,1,.315-.765l0,0a1.077,1.077,0,0,1,.762-.318h54.116a1.086,1.086,0,0,1,1.08,1.08Z" fill="#fff"/>
    </g>
    <path id="Path_379" data-name="Path 379" d="M84.343,469.021H43.658a1.55,1.55,0,0,0-1.551,1.55c0,7.185,1.685,14.52,3.37,21.854,1.641,7.149,3.284,14.3,3.284,21.163a15.129,15.129,0,0,0,13.711,15.083l.036,15.207h-9.26a1.551,1.551,0,1,0,0,3.1h21.5a1.551,1.551,0,1,0,0-3.1H65.6l-.036-15.21a15.129,15.129,0,0,0,13.678-15.08c0-6.865,1.642-14.014,3.284-21.163,1.684-7.334,3.369-14.669,3.369-21.854A1.55,1.55,0,0,0,84.343,469.021Zm-39.107,3.1H82.764a85.722,85.722,0,0,1-2.284,15.3c-5.4-1.1-10.762-.478-16.153.239-5.591.745-11.223,1.477-16.741.053A86.859,86.859,0,0,1,45.236,472.122Zm30.9,41.466a12.138,12.138,0,0,1-24.275,0c0-7.185-1.685-14.52-3.37-21.854-.057-.25-.112-.5-.169-.752,5.554,1.1,11,.467,16.4-.253,5.1-.679,10.163-1.273,15.072-.286-.1.431-.193.861-.292,1.291C77.823,499.068,76.138,506.4,76.138,513.588Z" transform="translate(367.893 6786.979)" fill="#fff"/>
    <g id="Group_365" data-name="Group 365" transform="translate(-284.75 6364.554)">
      <path id="Path_380" data-name="Path 380" d="M686.527,956.443h-2.753a30.971,30.971,0,0,0-29.125-29.582,1.478,1.478,0,0,0-.179.008,12.6,12.6,0,0,0-12.789-1.643,10.28,10.28,0,0,0-2.118-1.524,10.467,10.467,0,0,0-12.079,1.534,9.533,9.533,0,0,0-12.213,6.229,7.934,7.934,0,0,0-1,.028,8.471,8.471,0,0,0-4.463,15.123,26.513,26.513,0,0,0-2.438,9.827H603.14a1.389,1.389,0,0,0-1.39,1.39,11.574,11.574,0,0,0,11.561,11.561h63.045a11.574,11.574,0,0,0,11.561-11.561A1.389,1.389,0,0,0,686.527,956.443Zm-5.533,0h-7.189a8.475,8.475,0,0,0-2.229-13.163,8.313,8.313,0,0,0-.91-.423A9.565,9.565,0,0,0,658.634,932.6a12.735,12.735,0,0,0-1.338-2.656A28.2,28.2,0,0,1,680.994,956.443Zm-42.755-30.3a7.66,7.66,0,0,1,2.1,1.681,1.391,1.391,0,0,0,1.694.31,9.915,9.915,0,0,1,14.332,6.576,1.39,1.39,0,0,0,1.936.955,6.785,6.785,0,0,1,9.437,7.815,1.389,1.389,0,0,0,1.044,1.694,5.7,5.7,0,0,1-.878,11.244,8.028,8.028,0,0,1-3.846-1.168,5.685,5.685,0,0,1-2.191-5.116,1.388,1.388,0,0,0-1.27-1.53,6.783,6.783,0,0,1-1.579-.341,26.711,26.711,0,0,0-32.064-16.2,7.679,7.679,0,0,1,11.287-5.921Zm-28.9,14.3a5.71,5.71,0,0,1,5.173-6.187,5.823,5.823,0,0,1,1.568.083,1.391,1.391,0,0,0,1.63-1.143,6.782,6.782,0,0,1,7.872-5.6c-.064.107-.134.208-.194.318a10.378,10.378,0,0,0-1.256,5.1,26.88,26.88,0,0,0-13.006,11.093A5.7,5.7,0,0,1,609.341,940.45Zm24.714-6.568a24.055,24.055,0,0,1,23,17.264,12.089,12.089,0,0,0,3.893,5.3H610.154A23.973,23.973,0,0,1,634.056,933.882Zm42.3,32.732H613.311a8.8,8.8,0,0,1-8.671-7.391h80.387A8.8,8.8,0,0,1,676.356,966.614Z" transform="translate(0 0)" fill="#fff"/>
      <path id="Path_381" data-name="Path 381" d="M626.668,956.346a2.085,2.085,0,1,0,2.085,2.085A2.087,2.087,0,0,0,626.668,956.346Z" transform="translate(-4.7 -6.978)" fill="#fff"/>
      <path id="Path_382" data-name="Path 382" d="M641.392,946.56a2.476,2.476,0,1,0,2.476,2.476A2.478,2.478,0,0,0,641.392,946.56Z" transform="translate(-7.65 -4.964)" fill="#fff"/>
      <path id="Path_383" data-name="Path 383" d="M659.2,953.679a2.449,2.449,0,1,0,2.449,2.449A2.452,2.452,0,0,0,659.2,953.679Z" transform="translate(-11.321 -6.429)" fill="#fff"/>
    </g>
    <path id="Path_384" data-name="Path 384" d="M382.039,516.116h-8.657v-4.694h.089a4.082,4.082,0,0,0,2.935-6.923,4.068,4.068,0,0,0,0-5.671,4.082,4.082,0,0,0-2.935-6.923h-.089v-5.212h0V484.54A10.047,10.047,0,0,0,363.345,474.5h-9.912a5.512,5.512,0,0,0-.9-7.119A5.914,5.914,0,0,1,357,464.441a1.251,1.251,0,0,0-.3-2.483,8.305,8.305,0,0,0-6.335,4.2,5.531,5.531,0,0,0-6.18,8.35H325.694a10.047,10.047,0,0,0-10.036,10.036v2.153h0v5.212h-.088a4.082,4.082,0,0,0-2.936,6.923,4.068,4.068,0,0,0,0,5.671,4.082,4.082,0,0,0,2.936,6.923h.088v4.694H307a1.251,1.251,0,0,0-1.251,1.251,10.415,10.415,0,0,0,10.4,10.4h56.733a10.415,10.415,0,0,0,10.4-10.4A1.25,1.25,0,0,0,382.039,516.116Zm-8.569-7.2h-13.9a4.232,4.232,0,0,0,.37-1.727V505.75H373.47a1.585,1.585,0,0,1,0,3.171Zm-57.9-5.672a1.585,1.585,0,1,1,0-3.17h35.918v3.17Zm35.918-11.344h-3.454V484.5a1.811,1.811,0,0,1,1.553-1.846,1.728,1.728,0,0,1,1.9,1.719Zm-3.454,3.945v-1.444h3.454v3.171h-3.826A4.222,4.222,0,0,0,348.034,495.85Zm25.437,4.229a1.585,1.585,0,0,1,0,3.17H359.944v-3.17Zm1.585-4.087a1.587,1.587,0,0,1-1.585,1.586H359.944v-1.034a8.573,8.573,0,0,1,.279-2.137H373.47A1.587,1.587,0,0,1,375.055,495.992Zm-13.742-4.086a8.594,8.594,0,0,1,7.231-3.961h2.336v3.961ZM345.77,471.467a3.04,3.04,0,0,1,3.037-3.037,3.005,3.005,0,0,1,.542.054c-.036.129-.059.223-.065.248a1.237,1.237,0,0,0,2.1,1.14,3.007,3.007,0,0,1,.464,1.6,3.037,3.037,0,0,1-6.075,0ZM318.159,484.54a7.544,7.544,0,0,1,7.535-7.535h37.651a7.544,7.544,0,0,1,7.535,7.535v.9h-2.336a11.11,11.11,0,0,0-10.358,7.141,1.236,1.236,0,0,0-.121.328,11.042,11.042,0,0,0-.622,3.632v10.65a1.728,1.728,0,0,1-1.9,1.719,1.812,1.812,0,0,1-1.554-1.847v-22.7a4.228,4.228,0,0,0-4.236-4.228c-.134,0-.269.006-.4.019a4.33,4.33,0,0,0-3.817,4.336V495.85a1.73,1.73,0,0,1-2.088,1.692,1.82,1.82,0,0,1-1.366-1.82,10.226,10.226,0,0,0-.394-2.787,1.2,1.2,0,0,0-.032-.123,10.293,10.293,0,0,0-9.854-7.37H318.159Zm0,3.4H331.8a7.779,7.779,0,0,1,6.77,3.961H318.159Zm-2.589,6.463h23.887a7.825,7.825,0,0,1,.119,1.316,4.5,4.5,0,0,0,.413,1.855H315.57a1.585,1.585,0,1,1,0-3.171Zm-1.586,12.929a1.588,1.588,0,0,1,1.586-1.585h35.918v1.316a4.4,4.4,0,0,0,.426,1.855H315.57A1.588,1.588,0,0,1,313.984,507.335Zm4.175,4.087H370.88v4.694H318.159Zm54.727,13.846H316.153a7.914,7.914,0,0,1-7.8-6.651h72.339A7.913,7.913,0,0,1,372.886,525.268Z" transform="translate(354.25 6806.052)" fill="#fff"/>
    <path id="Path_385" data-name="Path 385" d="M388.879,364.825a1.341,1.341,0,0,0-1.341-1.341H378.79a18.008,18.008,0,0,0-17.829-20.795,18.015,18.015,0,0,0-7.918,1.839,17.888,17.888,0,0,0-4.949-7.873l28.14-13.268a1.341,1.341,0,0,0-1.143-2.426L345.732,334.8a17.92,17.92,0,0,0-4.572-2.139l21.168-12.946a1.341,1.341,0,1,0-1.4-2.288l-23.705,14.5c-.467-.035-.937-.059-1.414-.059a18.066,18.066,0,0,0-18.045,18.046,17.853,17.853,0,0,0,1.56,7.336,14.125,14.125,0,0,0-2.134,6.23h-10.1a1.341,1.341,0,0,0-1.341,1.341,11.166,11.166,0,0,0,9.921,11.081,8.134,8.134,0,0,0,8.019,6.86h47.248a8.135,8.135,0,0,0,8.02-6.86A11.166,11.166,0,0,0,388.879,364.825Zm-27.918-19.454a15.362,15.362,0,0,1,15.116,18.113h-4.13a11.32,11.32,0,0,0-16.362-12.723,14.339,14.339,0,0,0-1.77-1.932q-.047-.814-.165-1.605A15.336,15.336,0,0,1,360.962,345.371Zm-20.119,18.113a5.371,5.371,0,1,1,6.826,0Zm3.415-12.184a8.029,8.029,0,0,0-6.892,12.184h-3.888a11.555,11.555,0,1,1,21.562,0h-3.893a8.025,8.025,0,0,0-6.889-12.184Zm-17.007-.1a8.784,8.784,0,0,1-.1-1.28,8.584,8.584,0,0,1,.9-3.812l9.765-4.6a8.712,8.712,0,0,1,5.231,3.673,14.211,14.211,0,0,0-10.065,5.516,13.735,13.735,0,0,0-5.732.506Zm3.4,12.287h-5.084a5.966,5.966,0,0,1,4.472-4.46c0,.11-.016.216-.016.326A14.153,14.153,0,0,0,330.647,363.484Zm28.263-2.75a2.051,2.051,0,1,1,2.051,2.052A2.054,2.054,0,0,1,358.911,360.734ZM360.962,356a4.7,4.7,0,0,0-2.7.851,14.12,14.12,0,0,0-1.26-3.811,8.644,8.644,0,0,1,12.16,10.443h-4.356A4.726,4.726,0,0,0,360.962,356Zm-10.126-9.265a14.1,14.1,0,0,0-4.694-1.483,11.363,11.363,0,0,0-5-5.32l4.294-2.025A15.238,15.238,0,0,1,350.836,346.736Zm-30.39,3.182a15.388,15.388,0,0,1,22.32-13.714l-5.309,2.5a11.271,11.271,0,0,0-11.5,5.631,1.24,1.24,0,0,0-.081.134,11.239,11.239,0,0,0-1.153,7.769,14.3,14.3,0,0,0-3.472,2.577A15.263,15.263,0,0,1,320.446,349.917Zm10.915,3.351.042,0a14.053,14.053,0,0,0-1.033,2.98,8.643,8.643,0,0,0-7.531,7.233h-2.951A11.568,11.568,0,0,1,331.361,353.269Zm39.578,26.815H323.691a5.451,5.451,0,0,1-5.273-4.106h57.794A5.451,5.451,0,0,1,370.939,380.084Zm6.788-6.788H316.9a8.485,8.485,0,0,1-8.366-7.131h77.554A8.484,8.484,0,0,1,377.726,373.3Z" transform="translate(530.25 6950.766)" fill="#fff"/>
  </g>
</svg>
