<svg xmlns="http://www.w3.org/2000/svg" width="278.5" height="79.988" viewBox="0 0 278.5 79.988">
  <g id="main-logo" transform="translate(-95.434 -204.148)">
    <path id="Path_1" data-name="Path 1" d="M457.363,329.044a2.207,2.207,0,1,1-4.414,0q0-3,0-6c-4.089,0-6.653-.006-10.675-.008v6.009a2.208,2.208,0,1,1-4.416,0q0-8.212.009-16.422a2.2,2.2,0,0,1,4.407,0v6.006h10.68q0-3,0-6.006a2.2,2.2,0,0,1,4.406,0Zm-21.685,0a2.207,2.207,0,1,1-4.415,0,10.442,10.442,0,0,1-16.469-8.544v-7.877a2.2,2.2,0,1,1,4.405.082l.01,7.813a6.027,6.027,0,1,0,12.053-.018q0-3.937.009-7.877a2.2,2.2,0,0,1,4.405,0ZM396.115,339.37c0,1.092-.293,2.493-2.1,2.493a2.1,2.1,0,0,1-2.3-2.309v-18.86a10.441,10.441,0,1,1,10.457,10.441A2.214,2.214,0,0,1,400,328.913a2.167,2.167,0,0,1,2.166-2.167,6.053,6.053,0,1,0-6.051-6.052Zm-22.759-20.475h11.563a6.055,6.055,0,0,0-11.563,0Zm5.781-8.643a10.444,10.444,0,0,1,10.444,10.441,2.054,2.054,0,0,1-.5,1.721,1.7,1.7,0,0,1-1.349.45H373.488a6.051,6.051,0,0,0,9.023,2.852,2.183,2.183,0,0,1,2.791,3.356,9.569,9.569,0,0,1-6.165,2.061,10.441,10.441,0,0,1,0-20.882Zm-17.059,2.375a10.4,10.4,0,0,0-6.025-1.914,7.637,7.637,0,0,0-6.285,2.919,7.629,7.629,0,0,0-6.282-2.919,10.394,10.394,0,0,0-6.026,1.914,2.208,2.208,0,0,0-4.417,0v16.422a2.2,2.2,0,0,0,4.408,0q0-3.938.009-7.876c0-3.31,1.687-6.91,6.555-6.334,3.46.408,3.547,3,3.547,6.317v7.894a2.2,2.2,0,0,0,2.2,2.2h.01a2.2,2.2,0,0,0,2.2-2.2v-7.894c0-3.318.087-5.909,3.546-6.317,4.87-.575,6.557,3.024,6.557,6.334q.005,3.936.01,7.876a2.2,2.2,0,1,0,4.4,0v-6.518C366.6,317.831,365.011,314.838,362.078,312.627Zm-31.237,16.417a2.207,2.207,0,1,1-4.415,0,10.441,10.441,0,0,1-16.468-8.544v-7.877a2.2,2.2,0,1,1,4.4.082l.012,7.813a6.027,6.027,0,1,0,12.053-.018q.007-3.937.01-7.877a2.2,2.2,0,0,1,4.4,0Zm-39.3-10.149H303.1a6.056,6.056,0,0,0-11.564,0Zm5.782-8.643a10.443,10.443,0,0,1,10.442,10.441,2.054,2.054,0,0,1-.5,1.721,1.7,1.7,0,0,1-1.349.45H291.668a6.052,6.052,0,0,0,9.024,2.852,2.183,2.183,0,0,1,2.791,3.356,9.3,9.3,0,0,1-6.164,2.061,10.441,10.441,0,1,1,0-20.882Zm-20.209,1.976v4.938l6.336-6.335a1.975,1.975,0,1,1,2.793,2.794l-7.068,7.069,7.068,7.067a1.976,1.976,0,0,1-2.793,2.8l-6.336-6.336v4.944a1.976,1.976,0,0,1-3.952,0V312.228a1.976,1.976,0,0,1,3.952,0Zm196.312-1.963a2.208,2.208,0,0,1,0,4.415l-9.444-.006v14.215a2.208,2.208,0,1,1-4.416,0q0-8.211.01-16.421a2.2,2.2,0,0,1,2.2-2.2h11.649ZM320.4,305.033a2.553,2.553,0,1,1-2.553,2.553A2.554,2.554,0,0,1,320.4,305.033Z" transform="translate(-101.695 -57.728)" fill="#d353a4" fill-rule="evenodd"/>
    <path id="Path_2" data-name="Path 2" d="M197.347,220.443a9.961,9.961,0,1,0-19.921,0v7.371h19.921Zm-19.921,13.5h19.921v11.531h6.248q0-12.515,0-25.03a16.213,16.213,0,1,0-32.425,0q0,12.515,0,25.03h6.248Zm51.687-8.3v5.951h12.7a14.3,14.3,0,1,1,.832-11.722h6.638a20.677,20.677,0,1,0,.578,5.772Zm51.88-5.2a9.961,9.961,0,1,0-19.921,0v7.371h19.921Zm-19.921,13.5h19.921v11.531h6.249q0-12.515,0-25.03a16.212,16.212,0,1,0-32.424,0q0,12.515,0,25.03h6.249Zm57.3-13.5a9.568,9.568,0,0,0-9.96-10.011,9.987,9.987,0,0,0-9.961,10.011v7.371h11.284a9.977,9.977,0,0,0,2.976-.425A8.11,8.11,0,0,0,318.372,220.443Zm-19.921,13.5c11.557-.09,12.917-.137,15.776,1.725,3.1,2.017,4.618,5.048,4.594,9.807h5.8c0-4.729.526-8.969-6.2-14.757,4.287-1.593,6.2-6.659,6.2-10.273a16.212,16.212,0,1,0-32.424,0q0,12.515,0,25.03h6.249Zm31.13,11.531h6.139V207.24a3.069,3.069,0,1,0-6.139,0Zm17.235-28.948,20.269,28.948h6.434V207.24a3.069,3.069,0,1,0-6.139,0v28.948l-20.719-30.336a3.228,3.228,0,0,0-2.915-1.682,3.07,3.07,0,0,0-3.069,3.069v38.234h6.139Zm-209.2,55.994,9-27.071q-.517.026-1.04.026a20.561,20.561,0,0,1-11.791-3.7l.006.006L107,266.878l-1.377-1.271,22.153-30.29.006.007a20.543,20.543,0,0,1-2.843-9.384h0L96.757,239.231l-1.323-1.958L131.923,209.3v0a20.662,20.662,0,0,1,33.717,10.566H159a14.308,14.308,0,1,0-.832,11.722h-12.7v-5.951h20.751a20.555,20.555,0,0,1-3.288,10.38h0l-23.149,37.5Z" fill="#dadfe5" fill-rule="evenodd"/>
  </g>
</svg>
