<svg xmlns="http://www.w3.org/2000/svg" width="147.072" height="5.387" viewBox="0 0 147.072 5.387">
  <path id="pattern-line-wave-2" d="M0,.727a7.321,7.321,0,0,1,10.451,0A7.323,7.323,0,0,0,20.9.727a7.321,7.321,0,0,1,10.451,0,7.323,7.323,0,0,0,10.453,0,7.321,7.321,0,0,1,10.451,0,7.321,7.321,0,0,0,10.451,0,7.323,7.323,0,0,1,10.453,0,7.321,7.321,0,0,0,10.451,0,7.321,7.321,0,0,1,10.451,0,7.323,7.323,0,0,0,10.453,0,7.321,7.321,0,0,1,10.451,0,7.323,7.323,0,0,0,10.453,0,7.321,7.321,0,0,1,10.451,0,7.321,7.321,0,0,0,10.451,0" transform="translate(0.373 1.966)" fill="none" stroke="#fff" stroke-width="1"/>
</svg>
